<svg width="33" height="34" viewBox="0 0 33 34" fill="none" xmlns="http://www.w3.org/2000/svg">
<g clip-path="url(#clip0)">
<path d="M33.0001 16.7123C33.0001 25.8167 25.6129 33.1972 16.5001 33.1972C7.38728 33.1972 0 25.8167 0 16.7123C0 7.60799 7.38728 0.227539 16.5001 0.227539C25.6129 0.227539 33.0001 7.60799 33.0001 16.7123Z" fill="#5843BE"/>
<path d="M30.775 16.7123C30.775 24.5889 24.384 30.9741 16.5001 30.9741C8.61616 30.9741 2.2251 24.5889 2.2251 16.7123C2.2251 8.83571 8.61616 2.45056 16.5001 2.45056C24.384 2.45056 30.775 8.83571 30.775 16.7123Z" fill="#4632A7"/>
<path d="M27.1408 20.0701C27.1408 18.011 25.7316 16.2809 23.8242 15.7901V10.4216C23.8242 9.90572 23.4587 9.47508 22.9724 9.37369C22.8711 8.88804 22.4401 8.52293 21.9238 8.52293H18.1117L17.2547 7.66678H9.69415C9.10252 7.66678 8.62317 8.14595 8.62317 8.73704V24.384C8.62317 24.908 9.00023 25.344 9.49793 25.4362C9.57701 25.8623 9.90845 26.1996 10.3317 26.2878C10.4329 26.7737 10.8639 27.1388 11.3802 27.1388H22.7529C23.3446 27.1388 23.8242 26.6594 23.8242 26.0686V24.35C25.7316 23.859 27.1408 22.1289 27.1408 20.0701Z" fill="#382B73"/>
<path d="M22.7529 26.1721H11.3805C10.7889 26.1721 10.3093 25.6929 10.3093 25.1021V9.88306C10.3093 9.29198 10.7889 8.81281 11.3805 8.81281H22.7529C23.3446 8.81281 23.8242 9.29198 23.8242 9.88306V25.1018C23.8242 25.6929 23.3446 26.1721 22.7529 26.1721Z" fill="#D1D3D4"/>
<path d="M22.7529 25.7439H11.3805C10.7889 25.7439 10.3093 25.265 10.3093 24.6739V9.45512C10.3093 8.86403 10.7889 8.38486 11.3805 8.38486H22.7529C23.3446 8.38486 23.8242 8.86403 23.8242 9.45512V24.6739C23.8242 25.265 23.3446 25.7439 22.7529 25.7439Z" fill="white"/>
<path d="M21.9238 25.3437H10.5514C9.95972 25.3437 9.4801 24.8645 9.4801 24.2737V9.0547C9.4801 8.46361 9.95972 7.98444 10.5514 7.98444H21.9238C22.5154 7.98444 22.995 8.46361 22.995 9.0547V24.2735C22.995 24.8645 22.5154 25.3437 21.9238 25.3437Z" fill="#D1D3D4"/>
<path d="M21.9238 24.9155H10.5514C9.95972 24.9155 9.4801 24.4366 9.4801 23.8455V8.62675C9.4801 8.03566 9.95972 7.55649 10.5514 7.55649H21.9238C22.5154 7.55649 22.995 8.03566 22.995 8.62675V23.8455C22.995 24.4366 22.5154 24.9155 21.9238 24.9155Z" fill="#E6E7E8"/>
<path d="M17.683 7.12827H9.69415C9.10252 7.12827 8.62317 7.60744 8.62317 8.19852V23.4173C8.62317 24.0084 9.10252 24.4875 9.69415 24.4875H21.0668C21.6585 24.4875 22.1378 24.0084 22.1378 23.4173V11.5792L17.683 7.12827Z" fill="#D1D3D4"/>
<path d="M17.2547 6.70032H9.69415C9.10252 6.70032 8.62317 7.17922 8.62317 7.77031V22.9891C8.62317 23.5802 9.10252 24.0593 9.69415 24.0593H21.0668C21.6585 24.0593 22.1378 23.5802 22.1378 22.9891V11.5792L17.2547 6.70032Z" fill="white"/>
<path d="M20.008 13.8823H10.753C10.5165 13.8823 10.3246 13.6907 10.3246 13.454C10.3246 13.2173 10.5163 13.0254 10.753 13.0254H20.008C20.2447 13.0254 20.4366 13.217 20.4366 13.454C20.4366 13.6907 20.2447 13.8823 20.008 13.8823Z" fill="#D0D2D3"/>
<path d="M20.008 16.4794H10.753C10.5165 16.4794 10.3246 16.2875 10.3246 16.0507C10.3246 15.8143 10.5163 15.6224 10.753 15.6224H20.008C20.2447 15.6224 20.4366 15.814 20.4366 16.0507C20.4366 16.2875 20.2447 16.4794 20.008 16.4794Z" fill="#D0D2D3"/>
<path d="M20.008 19.0764H10.753C10.5165 19.0764 10.3246 18.8845 10.3246 18.6478C10.3246 18.4111 10.5163 18.2192 10.753 18.2192H20.008C20.2447 18.2192 20.4366 18.4111 20.4366 18.6478C20.4366 18.8845 20.2447 19.0764 20.008 19.0764Z" fill="#D0D2D3"/>
<path d="M20.008 21.6734H10.753C10.5165 21.6734 10.3246 21.4815 10.3246 21.2448C10.3246 21.0084 10.5163 20.8165 10.753 20.8165H20.008C20.2447 20.8165 20.4366 21.0081 20.4366 21.2448C20.4366 21.4815 20.2447 21.6734 20.008 21.6734Z" fill="#D0D2D3"/>
<path d="M22.1381 11.5792H18.3259C17.7343 11.5792 17.2547 11.1 17.2547 10.5089V6.70032L22.1381 11.5792Z" fill="#BBBDBF"/>
<path d="M23.8042 14.8185C21.4361 14.2191 19.0299 15.6512 18.4299 18.0172C17.8299 20.3831 19.2633 22.7871 21.6315 23.3865C23.9996 23.986 26.4058 22.5538 27.0058 20.1879C27.6058 17.8219 26.1723 15.418 23.8042 14.8185Z" fill="#009ADD"/>
<path d="M23.5132 15.6976C21.6298 15.2584 19.7467 16.4276 19.307 18.3092C18.8673 20.1909 20.0379 22.0722 21.9213 22.5115C23.8047 22.9508 25.6878 21.7815 26.1272 19.8999C26.5669 18.0183 25.3966 16.1369 23.5132 15.6976Z" fill="#5843BE"/>
<path d="M24.8099 17.4277L24.8093 17.4275C24.5575 17.1759 24.1497 17.1759 23.8979 17.4275L21.9087 19.4148L21.2917 18.7984C21.0401 18.5468 20.6318 18.5468 20.3802 18.7984C20.1281 19.05 20.1284 19.4582 20.3805 19.7095L21.455 20.7806C21.7068 21.0317 22.1144 21.0317 22.3662 20.7803L24.8099 18.3386C25.0614 18.087 25.0614 17.6793 24.8099 17.4277Z" fill="white"/>
</g>
<defs>
<clipPath id="clip0">
<rect width="33" height="32.9695" fill="white" transform="translate(0 0.227539)"/>
</clipPath>
</defs>
</svg>
