<svg width="31" height="32" viewBox="0 0 31 32" fill="none" xmlns="http://www.w3.org/2000/svg">
<path d="M8.95555 0.749298H0V6.8782H8.95555V0.749298Z" fill="#5843BE"/>
<path d="M19.9778 0.749298H11.0222V6.8782H19.9778V0.749298Z" fill="#5843BE"/>
<path d="M8.95555 9.02691H0V15.1558H8.95555V9.02691Z" fill="#5843BE"/>
<path d="M11.0222 15.1558H19.9778V9.02691H11.0222V15.1558ZM12.0555 10.0593H18.9444V14.1234H12.0555V10.0593Z" fill="#5843BE"/>
<path d="M8.95555 17.5726H0V23.7018H8.95555V17.5726Z" fill="#5843BE"/>
<path d="M11.0222 23.7015H19.9778V17.5726H11.0222V23.7015ZM12.0555 18.605H18.9444V22.6694H12.0555V18.605Z" fill="#5843BE"/>
<path d="M31 8.98873H22.0444V15.1176H31V8.98873Z" fill="#5843BE"/>
<path d="M31 17.2667H22.0444V23.3955H31V17.2667Z" fill="#5843BE"/>
<path d="M19.9778 25.812H11.0222V31.9412H19.9778V25.812Z" fill="#5843BE"/>
<path d="M31 25.812H22.0444V31.9412H31V25.812Z" fill="#5843BE"/>
</svg>
