<svg width="28" height="33" viewBox="0 0 28 33" fill="none" xmlns="http://www.w3.org/2000/svg">
<path d="M21.6617 8.70614L21.6247 8.74317C20.7818 9.58527 20.6456 10.8914 21.2705 11.9055C22.0698 13.2027 22.5312 14.7289 22.5312 16.3608C22.5312 21.0606 18.7041 24.8841 14 24.8841V30.0302C21.5564 30.0302 27.6821 23.9102 27.6821 16.3608C27.6821 13.7214 26.9333 11.2568 25.6365 9.16728C24.7692 7.76989 22.8255 7.54347 21.6617 8.70614Z" fill="#5843BE"/>
<path d="M23.6747 26.0265C22.6689 27.0314 21.0383 27.0314 20.0324 26.0265C19.0267 25.0217 19.0267 23.3926 20.0324 22.3877L20.0305 22.384C18.4856 23.9279 16.3525 24.8841 14 24.8841V30.0302C17.7782 30.0302 21.1988 28.5002 23.6747 26.0265Z" fill="#2E1D84"/>
<path d="M6.37531 23.9785C7.21818 23.1364 7.35443 21.8303 6.72949 20.8162C5.93018 19.519 5.46881 17.9927 5.46881 16.3608C5.46881 11.661 9.29587 7.8375 14 7.8375V2.69138C6.44356 2.69138 0.317932 8.81135 0.317932 16.3608C0.317932 19.0002 1.06668 21.4649 2.36349 23.5544C3.23081 24.9518 5.17456 25.1782 6.33831 24.0155L6.37531 23.9785Z" fill="#5843BE"/>
<path d="M4.32532 6.6951C5.33107 5.69026 6.96175 5.69026 7.96756 6.6951C8.97331 7.69999 8.97331 9.32913 7.96756 10.334L7.97094 10.3363C9.51568 8.79331 11.6482 7.83762 14.0001 7.83762V2.69138C10.2218 2.69138 6.80125 4.22135 4.32532 6.6951Z" fill="#2E1D84"/>
<path d="M14.0481 0.640032L18.972 4.2745C19.6687 4.78878 19.6687 5.82975 18.972 6.34403L14.0481 9.9785C13.198 10.6059 11.9951 9.9996 11.9951 8.9437V1.67483C11.9952 0.618926 13.198 0.0126094 14.0481 0.640032Z" fill="#A196D6"/>
<path d="M18.972 4.26411L14.0481 0.629684C13.198 0.00226769 11.9951 0.608578 11.9951 1.66447V8.07532C11.9952 4.33305 16.53 2.46167 18.972 4.26411Z" fill="#5843BE"/>
<path d="M13.9519 32.0815L9.02801 28.4471C8.33132 27.9328 8.33132 26.8918 9.02801 26.3775L13.9519 22.7431C14.802 22.1156 16.0049 22.722 16.0049 23.7779V31.0467C16.0048 32.1026 14.802 32.7089 13.9519 32.0815Z" fill="#A196D6"/>
<path d="M9.02802 28.4575L13.952 32.092C14.802 32.7194 16.0049 32.1131 16.0049 31.0572V24.6463C16.0048 28.3885 11.47 30.26 9.02802 28.4575Z" fill="#5843BE"/>
</svg>
