<svg width="17" height="25" viewBox="0 0 17 25" fill="none" xmlns="http://www.w3.org/2000/svg">
<path d="M10.9519 9.11233V7.23907H8.4519L9.00562 3.49912C9.08228 2.98812 9.43335 2.44492 9.93237 2.44492C10.4375 2.44492 10.8486 2.85567 10.8486 3.36033H12.7236C12.7236 1.82269 11.4714 0.571655 9.93237 0.571655C8.36768 0.571655 7.34912 1.90465 7.15112 3.22325L6.5564 7.23907H3.72217V9.11233H6.27905L4.46313 21.3739L4.45776 21.4178C4.40894 21.9049 4.0271 22.4264 3.53687 22.4264C3.03149 22.4264 2.62036 22.0157 2.62036 21.511H0.745361C0.745361 23.0486 1.99756 24.2997 3.53687 24.2997C5.10254 24.2997 6.17749 22.946 6.3208 21.6286L8.17432 9.11257H10.9519V9.11233Z" fill="white"/>
<path d="M16.1375 12.5799L14.5708 11.5505L13.116 13.7606L12.2136 11.6913L10.4946 12.4394L11.8857 15.6298L9.6333 19.0516L11.2 20.0809L12.78 17.6803L13.7654 19.9402L15.4846 19.1921L14.0103 15.8115L16.1375 12.5799Z" fill="white"/>
</svg>
