<svg width="31" height="21" viewBox="0 0 31 21" fill="none" xmlns="http://www.w3.org/2000/svg">
<path d="M30.9956 19.3873C30.9932 19.32 30.9909 19.2523 30.9885 19.1844C30.9861 19.1166 30.9835 19.0485 30.981 18.9801L30.9791 18.9289L30.9781 18.9033L30.9778 18.8968L30.9772 18.8395L30.977 18.8368L30.9762 18.8262L30.9696 18.7412C30.9608 18.6277 30.9519 18.5138 30.9431 18.3999L30.9363 18.3137L30.9261 18.2019C30.9191 18.1275 30.9121 18.0532 30.9051 17.979C30.8978 17.905 30.8905 17.831 30.8832 17.7573C30.8795 17.7205 30.8758 17.6838 30.872 17.6471C30.8675 17.6132 30.863 17.5793 30.8585 17.5454C30.8214 17.2767 30.7882 17.0127 30.7408 16.7588C30.7184 16.6318 30.6978 16.5069 30.6745 16.3851C30.6492 16.2637 30.6244 16.145 30.6002 16.0293C30.5545 15.7979 30.497 15.5818 30.4486 15.382C30.4362 15.3322 30.424 15.2833 30.4122 15.2356C30.399 15.1881 30.3861 15.1418 30.3735 15.0966C30.348 15.0064 30.3238 14.9208 30.3011 14.8405C30.2779 14.7602 30.2575 14.6849 30.2361 14.6159C30.2141 14.5471 30.194 14.4838 30.1757 14.4267C30.1487 14.3428 30.1259 14.2721 30.1079 14.2163C30.0813 14.1338 29.9941 14.0874 29.9107 14.1112L24.6697 15.6034C24.5898 15.6261 24.5403 15.7056 24.5555 15.7872C24.5612 15.8176 24.5677 15.8525 24.575 15.8915C24.5824 15.9308 24.5907 15.9744 24.5997 16.0217C24.6082 16.0692 24.6149 16.1213 24.6235 16.1763C24.6319 16.2313 24.6409 16.29 24.6503 16.3518C24.6549 16.3826 24.6604 16.4141 24.6646 16.4466C24.6683 16.4792 24.6721 16.5126 24.676 16.5467C24.6906 16.6831 24.7124 16.8294 24.7222 16.9862C24.7286 17.0642 24.7352 17.1444 24.742 17.2262C24.7471 17.3083 24.7497 17.3924 24.754 17.4775C24.7654 17.6474 24.7632 17.8244 24.7665 18.0029L24.7673 18.0693L24.7649 18.1282C24.7636 18.1674 24.7622 18.2067 24.7609 18.2461C24.7598 18.2853 24.7587 18.3247 24.7577 18.3641L24.7564 18.423L24.7528 18.5078C24.748 18.622 24.7431 18.7361 24.7382 18.8498L24.7346 18.935L24.7341 18.9456L24.734 18.9482C24.7341 18.9611 24.733 18.8468 24.7334 18.8961L24.7329 18.9004L24.7314 18.9172L24.7283 18.9508C24.7242 18.9955 24.7202 19.0401 24.7162 19.0845C24.7123 19.1288 24.7084 19.173 24.7046 19.2169C24.6993 19.2607 24.6942 19.3043 24.6889 19.3475C24.6778 19.4339 24.671 19.5195 24.6572 19.6028C24.6451 19.6862 24.6332 19.7682 24.6216 19.8485C24.6077 19.9282 24.5941 20.0062 24.581 20.0821C24.569 20.1581 24.553 20.2312 24.5388 20.302C24.5239 20.3727 24.5121 20.4413 24.4966 20.5065C24.4816 20.5716 24.4672 20.6339 24.4534 20.6933C24.4467 20.7226 24.4401 20.7511 24.4337 20.7789C24.4271 20.8027 24.4207 20.8257 24.4145 20.8481C24.4108 20.8618 24.4074 20.8747 24.4038 20.8879H30.8139C30.8998 20.8879 30.9713 20.8206 30.9746 20.7348C30.9746 20.7343 30.9746 20.7338 30.9747 20.7333C30.98 20.614 30.9855 20.4916 30.9911 20.3664C30.9935 20.2413 30.9959 20.1135 30.9984 19.9836C31.002 19.8538 30.9981 19.7218 30.9977 19.5884C30.997 19.5217 30.9963 19.4547 30.9956 19.3873Z" fill="#5843BE"/>
<path d="M29.3289 12.6656C29.4149 12.631 29.4541 12.5315 29.4144 12.4478C29.3968 12.4106 29.3762 12.3671 29.3529 12.3179C29.3309 12.2717 29.3065 12.2205 29.2801 12.1648C29.2459 12.0951 29.2089 12.0198 29.1693 11.9393C29.1294 11.8592 29.087 11.7738 29.0422 11.6839C29.0196 11.6372 28.9973 11.5986 28.9739 11.5547C28.9507 11.5118 28.9269 11.4679 28.9026 11.4231C28.8538 11.3337 28.8038 11.2401 28.7502 11.1443C28.6948 11.0496 28.6376 10.9516 28.5787 10.8509C28.5492 10.8006 28.5193 10.7497 28.489 10.6982C28.4574 10.6474 28.4253 10.5961 28.3929 10.5442C28.3277 10.4408 28.2611 10.3351 28.1934 10.2278C28.0506 10.0175 27.9084 9.79755 27.7497 9.58353C27.7108 9.52964 27.6716 9.47555 27.6323 9.4213L27.5733 9.33999L27.5118 9.26002C27.4296 9.15365 27.347 9.04691 27.2644 8.94014C27.1804 8.83461 27.0935 8.7313 27.0083 8.62759C26.9652 8.57608 26.9235 8.52382 26.8795 8.47349C26.8354 8.42331 26.7915 8.37327 26.7477 8.32342C26.7039 8.27377 26.6602 8.22422 26.6168 8.17496C26.5736 8.1255 26.5301 8.07689 26.4852 8.02988C26.3963 7.9353 26.3085 7.8419 26.2222 7.75C26.1357 7.65839 26.0462 7.57229 25.961 7.48622C25.8752 7.40061 25.7918 7.31653 25.7066 7.23845C25.6224 7.15969 25.5404 7.08308 25.4612 7.00894C25.3823 6.93464 25.3017 6.86716 25.2266 6.80033C25.151 6.73421 25.0784 6.67087 25.0094 6.61062C24.9387 6.55236 24.8716 6.49713 24.8085 6.44523C24.7454 6.39353 24.6864 6.34515 24.6318 6.30042C24.5771 6.25585 24.5248 6.21722 24.4787 6.1812C24.4115 6.12972 24.3548 6.08623 24.3098 6.05167C24.2411 5.99899 24.1431 6.01023 24.0879 6.07697L21.275 9.47878C21.2219 9.54294 21.2265 9.6367 21.2856 9.69525C21.3092 9.71846 21.3363 9.74533 21.3669 9.77555C21.3961 9.80492 21.4297 9.83602 21.4641 9.87234C21.4985 9.90863 21.5356 9.94791 21.5753 9.98983C21.6151 10.0316 21.6574 10.076 21.7019 10.1228C21.7449 10.1711 21.7901 10.222 21.8372 10.275C21.8838 10.3286 21.9347 10.3817 21.9831 10.441C22.032 10.4997 22.0825 10.5603 22.1344 10.6227C22.1873 10.6839 22.2378 10.7504 22.2901 10.8175C22.3418 10.8851 22.3971 10.9518 22.449 11.0233C22.501 11.0946 22.5538 11.167 22.6073 11.2404C22.6346 11.2764 22.6605 11.3141 22.686 11.3523C22.7117 11.3903 22.7376 11.4283 22.7636 11.4666C22.7897 11.5047 22.8159 11.543 22.8421 11.5814C22.8683 11.6198 22.8922 11.6599 22.9175 11.6992C22.9672 11.7785 23.0187 11.8566 23.0675 11.9365C23.1151 12.0171 23.1627 12.0977 23.2101 12.178L23.2456 12.238L23.279 12.2991C23.3012 12.3398 23.3234 12.3803 23.3455 12.4206C23.4367 12.58 23.5137 12.7444 23.5942 12.8988C23.6311 12.9779 23.6673 13.0557 23.7028 13.1319C23.7206 13.1699 23.7382 13.2074 23.7555 13.2445C23.7716 13.2823 23.7875 13.3195 23.8031 13.3563C23.8346 13.4296 23.8652 13.5009 23.8949 13.5698C23.9223 13.6396 23.9487 13.7071 23.9741 13.7719C23.9868 13.8042 23.9992 13.8359 24.0113 13.8668C24.0228 13.897 24.0371 13.9297 24.0447 13.9548C24.0628 14.0076 24.0799 14.0577 24.0961 14.1048C24.1125 14.1515 24.1279 14.1952 24.1422 14.2357C24.1609 14.2915 24.178 14.3426 24.1935 14.3888C24.2108 14.4405 24.226 14.4861 24.239 14.5252C24.2684 14.613 24.3657 14.6578 24.4516 14.6233L29.3289 12.6656Z" fill="#5843BE"/>
<path d="M15.0042 6.58945C15.0469 6.59525 15.094 6.60168 15.1453 6.60869C15.1964 6.61755 15.2516 6.62717 15.3105 6.63744C15.3694 6.64755 15.4321 6.65827 15.4981 6.66962C15.5554 6.67914 15.6149 6.69296 15.6766 6.70587L17.4519 3.07787C17.3639 3.06415 17.2766 3.05052 17.1911 3.03718C17.1325 3.02848 17.0748 3.01847 17.0173 3.0113C16.9598 3.00435 16.9031 2.99748 16.847 2.99069C16.7351 2.97743 16.6263 2.96448 16.5211 2.952C16.4156 2.94296 16.3136 2.93423 16.2157 2.92585C16.1178 2.91835 16.0245 2.90847 15.9351 2.90423C15.8459 2.89987 15.7612 2.89569 15.6817 2.89178C15.6023 2.88803 15.5279 2.88454 15.4592 2.88128C15.3905 2.88017 15.3273 2.87916 15.2702 2.87825C15.19 2.87727 15.1218 2.87646 15.0672 2.87581C14.9806 2.87476 14.9089 2.94241 14.9047 3.02887L14.7429 6.40567C14.7389 6.48887 14.799 6.56131 14.8815 6.57263C14.9167 6.57745 14.9577 6.58309 15.0042 6.58945Z" fill="#5843BE"/>
<path d="M19.7756 8.44868C19.8233 8.48334 19.8685 8.5162 19.911 8.54714C19.9535 8.57759 19.9934 8.60608 20.0302 8.63245C20.0462 8.64341 20.0725 8.66336 20.094 8.67933C20.1162 8.69586 20.1373 8.71161 20.1573 8.72654C20.201 8.75911 20.2396 8.78786 20.2726 8.81248C20.3468 8.86784 20.4522 8.84912 20.5031 8.77173L22.8209 5.2444C22.8718 5.16701 22.8471 5.06291 22.7667 5.01685C22.731 4.99638 22.6892 4.97245 22.642 4.94535C22.6203 4.9329 22.5974 4.91983 22.5734 4.90607C22.5473 4.8913 22.52 4.87585 22.4915 4.85974C22.4255 4.82343 22.3542 4.78421 22.278 4.74225C22.2018 4.70075 22.1206 4.65661 22.0351 4.61002C21.9536 4.56923 21.868 4.52636 21.7786 4.4816C21.6889 4.43785 21.5973 4.38918 21.4992 4.345C21.4014 4.30027 21.3004 4.25401 21.1966 4.20645C21.0934 4.15781 20.9846 4.11363 20.8741 4.06727C20.7631 4.02189 20.6515 3.97227 20.5349 3.92849C20.5054 3.91731 20.4754 3.90599 20.4456 3.89471L19.4457 8.23061C19.501 8.2653 19.5531 8.30207 19.6044 8.33526C19.6641 8.37481 19.7212 8.41266 19.7756 8.44868Z" fill="#5843BE"/>
<path d="M11.892 6.57168C11.9368 6.56577 11.9807 6.55847 12.0246 6.55384C12.0685 6.54941 12.1119 6.54501 12.1546 6.54064C12.24 6.5318 12.323 6.5232 12.4033 6.51485C12.4838 6.50947 12.5616 6.50426 12.6363 6.49924C12.6736 6.49669 12.7101 6.49422 12.7457 6.49177C12.7813 6.48939 12.8169 6.48636 12.8475 6.48633C12.9104 6.48466 12.9702 6.48313 13.0263 6.48166C13.0822 6.4799 13.1345 6.47824 13.1829 6.47671C13.2426 6.47632 13.2974 6.47596 13.3469 6.47563C13.4014 6.47534 13.4495 6.47508 13.4907 6.47485C13.5834 6.47436 13.6562 6.39595 13.6501 6.30356L13.4415 3.12266C13.4354 3.03027 13.353 2.96203 13.261 2.97364C13.2202 2.97879 13.1724 2.98482 13.1183 2.99163C13.0682 2.99799 13.0127 3.00507 12.9523 3.01276C12.8809 3.02336 12.8037 3.03477 12.7212 3.04699C12.6389 3.05951 12.5513 3.07284 12.459 3.0869C12.4117 3.09355 12.3682 3.10238 12.3226 3.11099C12.2771 3.11966 12.2305 3.12856 12.183 3.13762C12.088 3.15594 11.9892 3.17505 11.8868 3.19481C11.7852 3.21792 11.6801 3.24185 11.5722 3.2664C11.5183 3.27875 11.4637 3.29131 11.4084 3.30402C11.3532 3.31693 11.2978 3.33271 11.2416 3.34722C11.1296 3.37705 11.0151 3.40753 10.8987 3.4385C10.7834 3.47322 10.6663 3.50849 10.5477 3.54423C10.4885 3.56252 10.4288 3.57976 10.3694 3.59929C10.3103 3.61947 10.2507 3.63971 10.191 3.66009C10.1314 3.6805 10.0715 3.70097 10.0115 3.72154C9.95149 3.74195 9.89135 3.76246 9.83203 3.78583C9.71309 3.83118 9.59369 3.87673 9.47429 3.92227C9.35541 3.96876 9.23849 4.02027 9.12132 4.06901C9.0629 4.09388 9.00433 4.11788 8.94661 4.1434C8.88927 4.16984 8.83213 4.19619 8.77519 4.22246C8.71838 4.24874 8.66177 4.27495 8.60548 4.301C8.54919 4.32701 8.49313 4.35264 8.43863 4.3809C8.32925 4.43607 8.22121 4.49058 8.11496 4.54417C8.00868 4.59741 7.90739 4.65616 7.80679 4.71024C7.70664 4.76534 7.60816 4.81789 7.51526 4.87452C7.42183 4.92988 7.33096 4.98377 7.24305 5.03586C7.15488 5.08724 7.0731 5.14273 6.99296 5.19287C6.91337 5.24383 6.83711 5.2927 6.76457 5.33915C6.6936 5.38783 6.62625 5.43399 6.56297 5.47738C6.49986 5.52081 6.4408 5.56143 6.38618 5.59902C6.33162 5.63661 6.28335 5.67387 6.23888 5.70608C6.17861 5.75055 6.12715 5.7885 6.08551 5.81921C6.01597 5.87049 5.99966 5.96735 6.04828 6.03878L7.37034 7.9807C7.4174 8.04982 7.50938 8.0715 7.58225 8.03039C7.61583 8.01148 7.65551 7.98908 7.70077 7.96359C7.74022 7.94178 7.7829 7.91602 7.8311 7.89095C7.87926 7.86585 7.93134 7.83879 7.98698 7.80984C8.04245 7.78086 8.10152 7.75002 8.16374 7.71751C8.22705 7.68719 8.29358 7.65531 8.36302 7.62206C8.43279 7.58958 8.50357 7.55239 8.57989 7.51995C8.65563 7.48673 8.73395 7.4524 8.81448 7.41709C8.8942 7.38041 8.97865 7.34837 9.06408 7.31414C9.14997 7.28088 9.23598 7.24326 9.32608 7.21147C9.41578 7.17917 9.50702 7.14634 9.59933 7.11308C9.64512 7.09571 9.69224 7.08101 9.73945 7.06594C9.78657 7.05078 9.83396 7.03556 9.8815 7.02027C9.92895 7.00495 9.97659 6.98956 10.0244 6.97411C10.0724 6.95953 10.1211 6.94649 10.1695 6.93254C10.2667 6.90568 10.3633 6.87588 10.4612 6.85091C10.5591 6.82668 10.6571 6.80246 10.7547 6.77837C10.8031 6.76549 10.8522 6.75542 10.9011 6.74534C10.95 6.73507 10.9986 6.72484 11.0472 6.71463C11.0955 6.70436 11.1437 6.69416 11.1917 6.68399C11.2398 6.6744 11.2881 6.667 11.3358 6.65843C11.4311 6.6419 11.5253 6.62553 11.618 6.60949C11.711 6.59668 11.8024 6.58403 11.892 6.57168Z" fill="#5843BE"/>
<path d="M2.87727 9.0825C2.84261 9.13147 2.80783 9.18067 2.77288 9.23006C2.73803 9.27942 2.70305 9.32897 2.66794 9.37869C2.63299 9.42847 2.60029 9.48011 2.56629 9.5309C2.49927 9.63317 2.43067 9.73466 2.36502 9.83807C2.3009 9.94236 2.23678 10.0467 2.17292 10.1506L2.12528 10.2283L2.08005 10.3074C2.05 10.36 2.02004 10.4124 1.99018 10.4646C1.86814 10.6717 1.76212 10.8834 1.65437 11.0845C1.60422 11.1871 1.55488 11.2879 1.50658 11.3866C1.48263 11.4359 1.45891 11.4847 1.43551 11.5329C1.41348 11.5818 1.39175 11.63 1.37028 11.6777C1.32753 11.7728 1.28596 11.8654 1.24573 11.9549C1.2082 12.0456 1.17191 12.1332 1.1371 12.2172C1.10296 12.3015 1.06847 12.3813 1.03907 12.4587C1.01006 12.5362 0.98252 12.6098 0.956611 12.6789C0.930832 12.7479 0.906717 12.8125 0.88443 12.8722C0.86384 12.9325 0.844946 12.9879 0.827847 13.0379C0.805658 13.1037 0.786601 13.1602 0.771035 13.2064C0.743462 13.2881 0.785393 13.3768 0.865993 13.4076L2.09653 13.8789C2.17484 13.9089 2.26305 13.8739 2.29923 13.7983C2.31718 13.7609 2.33862 13.7161 2.36326 13.6646C2.38369 13.6222 2.40627 13.5752 2.4309 13.5241C2.45707 13.4736 2.48537 13.4192 2.51561 13.3609C2.54577 13.3028 2.57781 13.2409 2.61162 13.1757C2.64568 13.1107 2.68491 13.0441 2.72384 12.9736C2.76326 12.9036 2.80434 12.8306 2.84686 12.755C2.89166 12.6809 2.93796 12.6043 2.98561 12.5254C3.00933 12.4861 3.03338 12.4462 3.05772 12.4059C3.08334 12.3662 3.10928 12.3262 3.13548 12.2856C3.18789 12.2048 3.24144 12.1222 3.2959 12.0382C3.41161 11.8745 3.52478 11.7022 3.65266 11.5359C3.68389 11.4939 3.71525 11.4517 3.7467 11.4095L3.79386 11.346L3.84326 11.2839C3.90905 11.2011 3.97509 11.1181 4.04114 11.0351C4.10839 10.953 4.17819 10.8731 4.24603 10.7925C4.28043 10.7525 4.31345 10.7117 4.34866 10.6728C4.3839 10.634 4.41901 10.5953 4.45399 10.5567C4.48891 10.5182 4.52366 10.4798 4.55825 10.4416C4.59251 10.4032 4.6271 10.3655 4.66303 10.3293C4.73371 10.2562 4.80354 10.1839 4.87223 10.1128C4.94079 10.0419 5.01235 9.97601 5.0799 9.90944C5.14797 9.84335 5.21382 9.77815 5.28162 9.71839C5.34832 9.65776 5.4132 9.59878 5.47598 9.54169C5.53824 9.48428 5.60239 9.43303 5.66165 9.38159C5.7213 9.33083 5.77847 9.28219 5.83284 9.23593C5.88622 9.19371 5.93687 9.15367 5.98444 9.11599C6.03176 9.07836 6.07604 9.04312 6.11699 9.01052C6.13579 8.995 6.16124 8.97642 6.18274 8.96009C6.2048 8.94343 6.22585 8.92758 6.24582 8.91255C6.28932 8.87972 6.32773 8.85077 6.36062 8.826C6.43459 8.77021 6.44605 8.66387 6.38588 8.59345L4.98484 6.95363C4.92467 6.88322 4.81774 6.87784 4.751 6.94206C4.72134 6.97062 4.68665 7.00397 4.64743 7.04175C4.62942 7.05907 4.61043 7.07736 4.59052 7.09649C4.57026 7.11615 4.55097 7.13405 4.52585 7.15971C4.47781 7.20812 4.4259 7.26051 4.37039 7.31645C4.31518 7.37243 4.25641 7.43199 4.19444 7.49478C4.13685 7.55712 4.07628 7.62265 4.01311 7.69101C3.95072 7.7599 3.88343 7.82931 3.81833 7.9054C3.75297 7.9811 3.68542 8.05937 3.61595 8.1398C3.54563 8.21928 3.47759 8.30467 3.4076 8.39129C3.33812 8.47837 3.2649 8.56525 3.19504 8.65732C3.12537 8.74938 3.05456 8.84298 2.9829 8.93779C2.94648 8.98477 2.91166 9.03328 2.87727 9.0825Z" fill="#5843BE"/>
<path d="M0.331373 14.8317C0.323183 14.872 0.313589 14.9192 0.302723 14.9725C0.29277 15.0215 0.281741 15.0758 0.269732 15.1348C0.257952 15.1952 0.246433 15.2665 0.233576 15.3392C0.220915 15.4127 0.207471 15.4909 0.193309 15.5733C0.186456 15.6144 0.178625 15.6568 0.172131 15.6996C0.166355 15.7422 0.160482 15.7857 0.154445 15.83C0.131472 16.0078 0.101223 16.1991 0.0837977 16.4034C0.073682 16.5052 0.0633051 16.6098 0.0526999 16.7167C0.0439547 16.8237 0.0381136 16.9333 0.0305757 17.0444C0.0129547 17.2665 0.00972419 17.4968 0.0023821 17.7297L0 17.8173L0.00042421 17.9052C0.000750525 17.9639 0.00107684 18.0228 0.00140316 18.0817C0.0017621 18.1406 0.00212105 18.1997 0.00244736 18.2587L0.0030021 18.3473L0.00639578 18.4359C0.0111926 18.5538 0.0159894 18.6718 0.0207863 18.7893L0.0244084 18.8772L0.0255178 18.9056L0.0270842 18.9268L0.0302168 18.9692C0.0343936 19.0256 0.0385378 19.0819 0.042682 19.138C0.0468262 19.1942 0.0509704 19.25 0.0550494 19.3056C0.0606946 19.3635 0.0662746 19.4213 0.0718872 19.4787C0.0775325 19.536 0.0831451 19.5929 0.0887251 19.6495C0.0915314 19.6777 0.0943377 19.7059 0.097144 19.7339C0.100636 19.7614 0.104127 19.7889 0.107586 19.8163C0.121487 19.9255 0.13516 20.0329 0.148539 20.1381C0.164691 20.2428 0.180485 20.3453 0.195822 20.445C0.21018 20.5446 0.228682 20.641 0.245683 20.7342C0.247086 20.7417 0.248489 20.7491 0.24986 20.7565C0.264054 20.8327 0.330427 20.8879 0.407992 20.8879H0.841697C0.934306 20.8879 1.00779 20.81 1.00234 20.7177C1.00087 20.693 0.999373 20.6681 0.997709 20.643C0.992292 20.5531 0.985766 20.4605 0.983677 20.3649C0.980544 20.2694 0.977347 20.1713 0.974051 20.0711C0.973431 19.971 0.972811 19.8686 0.972191 19.7645C0.972028 19.7386 0.971864 19.7124 0.971701 19.6863C0.972256 19.6605 0.972843 19.6346 0.973431 19.6085C0.974573 19.5566 0.975715 19.5043 0.97689 19.4517C0.978032 19.3991 0.979207 19.3462 0.980381 19.2931C0.982992 19.2374 0.98557 19.1814 0.988213 19.1253C0.990823 19.0691 0.993466 19.0127 0.996077 18.9562L0.998068 18.9137L0.999047 18.8924L0.999177 18.8898C0.999177 18.883 0.999308 18.896 0.999373 18.8938L0.999764 18.8886L1.00058 18.8784L1.00717 18.7961C1.01592 18.6864 1.02469 18.5764 1.03351 18.4663L1.04023 18.3839L1.04972 18.3017C1.05605 18.247 1.06235 18.1924 1.06865 18.1378C1.07491 18.0833 1.08118 18.029 1.08741 17.9748L1.09671 17.8937L1.10875 17.8131C1.14178 17.5989 1.16984 17.3882 1.21096 17.1865C1.23024 17.0854 1.2475 16.986 1.26731 16.8892C1.28888 16.7928 1.30996 16.6985 1.33048 16.6067C1.36847 16.4228 1.41771 16.2518 1.45778 16.0933C1.46806 16.0538 1.47811 16.015 1.48793 15.9772C1.49831 15.9399 1.5095 15.9047 1.51981 15.8697C1.5406 15.8002 1.56034 15.7342 1.57888 15.6722C1.59783 15.6097 1.6134 15.5538 1.63154 15.4976C1.65057 15.4404 1.66799 15.3879 1.68379 15.3405C1.70095 15.2888 1.71612 15.2432 1.72911 15.204C1.75832 15.1162 1.70731 15.0221 1.61777 14.9983L0.530523 14.7086C0.44095 14.6847 0.349842 14.741 0.331373 14.8317Z" fill="#5843BE"/>
<path d="M12.6387 20.4619C12.9924 20.6347 13.3672 20.7166 13.7361 20.7166C14.6621 20.7166 15.552 20.2011 15.9861 19.314C16.0697 19.1432 16.1344 18.9547 16.1765 18.7771L18.708 7.79972L19.672 3.61917L20.2693 1.02943C20.3388 0.728028 20.0988 0.522705 19.8581 0.522705C19.7171 0.522705 19.5759 0.593091 19.4963 0.755739L18.2809 3.2394L16.488 6.90332L11.4897 17.1176C10.8826 18.3582 11.3971 19.8555 12.6387 20.4619ZM13.8289 16.9268C14.5063 16.9268 15.0554 17.4754 15.0554 18.1522C15.0554 18.829 14.5063 19.3777 13.8289 19.3777C13.1515 19.3777 12.6023 18.829 12.6023 18.1522C12.6023 17.4754 13.1515 16.9268 13.8289 16.9268Z" fill="#5843BE"/>
</svg>
