<svg width="22" height="33" viewBox="0 0 22 33" fill="none" xmlns="http://www.w3.org/2000/svg">
<path d="M13.0912 30.0994H9.79625C9.33206 30.0994 8.95581 29.7235 8.95581 29.2597V16.8938H13.9316V29.2597C13.9317 29.7235 13.5554 30.0994 13.0912 30.0994Z" fill="#FEFEFF"/>
<path d="M8.95593 24.3522C9.763 24.5009 10.5944 24.5793 11.4439 24.5793C12.2934 24.5793 13.1247 24.5009 13.9318 24.3522V16.8938H8.95599V24.3521H8.95593V24.3522Z" fill="#C5C5C5"/>
<path d="M21.7507 31.3412L16.0235 15.1475L11.5797 16.7161L16.9444 31.8848C17.0577 32.2053 17.3614 32.4192 17.7017 32.418H20.998C21.5493 32.4162 21.9343 31.8604 21.7507 31.3412Z" fill="#5843BE"/>
<path d="M1.1368 31.3412L6.86404 15.1475L11.3078 16.7161L5.9431 31.8848C5.82979 32.2053 5.5261 32.4192 5.18585 32.418H1.88767C1.33648 32.4162 0.953172 31.8604 1.1368 31.3412Z" fill="#5843BE"/>
<path d="M16.0234 15.1475L11.5797 16.7161L13.8242 23.0626C15.4095 22.7533 16.8876 22.1416 18.1957 21.2897L16.0234 15.1475Z" fill="#3B3074"/>
<path d="M4.69177 21.2897C5.9999 22.1416 7.47796 22.7533 9.06327 23.0626L11.3078 16.7161L6.86409 15.1475L4.69177 21.2897Z" fill="#3B3074"/>
<path d="M11.4436 21.363C17.2246 21.363 21.9109 16.6809 21.9109 10.9054C21.9109 5.12979 17.2246 0.447754 11.4436 0.447754C5.66269 0.447754 0.976318 5.12979 0.976318 10.9054C0.976318 16.6809 5.66269 21.363 11.4436 21.363Z" fill="#C3C2C8"/>
<path d="M6.99219 10.9054C6.99219 6.17438 10.1369 2.1779 14.4517 0.886722C13.4989 0.601611 12.4894 0.447754 11.4439 0.447754C5.66294 0.447754 0.976562 5.12979 0.976562 10.9054C0.976562 16.6809 5.66294 21.363 11.4439 21.363C12.4894 21.363 13.4989 21.2091 14.4517 20.924C10.1369 19.6328 6.99219 15.6363 6.99219 10.9054Z" fill="white"/>
<path d="M11.4437 18.0367C15.3858 18.0367 18.5815 14.8439 18.5815 10.9054C18.5815 6.96694 15.3858 3.77417 11.4437 3.77417C7.50152 3.77417 4.30579 6.96694 4.30579 10.9054C4.30579 14.8439 7.50152 18.0367 11.4437 18.0367Z" fill="white"/>
<path d="M9.58234 17.7911C7.96978 15.9517 6.99209 13.5428 6.99209 10.9053C6.99209 8.26791 7.96978 5.85901 9.58234 4.01953C6.54297 4.83765 4.30591 7.61027 4.30591 10.9053C4.30591 14.2004 6.54297 16.9729 9.58234 17.7911Z" fill="#D8D8D8"/>
<path d="M11.4438 13.9453C13.1243 13.9453 14.4866 12.5842 14.4866 10.9053C14.4866 9.22631 13.1243 7.86523 11.4438 7.86523C9.76322 7.86523 8.40088 9.22631 8.40088 10.9053C8.40088 12.5842 9.76322 13.9453 11.4438 13.9453Z" fill="#5843BE"/>
<path d="M2.48834 3.07699L0.644774 3.53856C0.284961 3.6286 0.182023 4.09011 0.469461 4.32426L2.97415 6.36529C3.2779 6.61287 3.69109 6.67919 4.05721 6.53919L5.88121 5.84178L6.1984 3.91652C6.26209 3.53007 6.11396 3.13906 5.81021 2.89147L3.30546 0.85038C3.01802 0.616161 2.58634 0.809668 2.57027 1.17988L2.48834 3.07699Z" fill="#CACACA"/>
<path d="M10.513 9.61622C10.3444 9.82272 10.0402 9.85357 9.8336 9.68516L2.15329 3.4266C1.9466 3.2582 1.91573 2.95429 2.08429 2.74785C2.25285 2.54136 2.55704 2.51051 2.76366 2.67892L10.444 8.93741C10.6507 9.10582 10.6816 9.40972 10.513 9.61622Z" fill="#3B306C"/>
<path d="M1.31654 11.2108L0.180416 12.733C-0.0412709 13.03 0.171041 13.4526 0.541854 13.4525L3.77398 13.4513C4.16604 13.4512 4.52804 13.2416 4.7231 12.9018L5.69473 11.2093L4.72198 9.51731C4.52666 9.17769 4.16454 8.96832 3.77248 8.96851L0.540354 8.96963C0.169479 8.96976 -0.0425208 9.39237 0.179354 9.68934L1.31654 11.2108Z" fill="#3B3074"/>
<path d="M11.672 11.2078C11.6721 11.4746 11.456 11.6908 11.1893 11.6908L1.27817 11.6942C1.01142 11.6942 0.795229 11.4782 0.795166 11.2114C0.795104 10.9447 1.01117 10.7285 1.27792 10.7284L11.189 10.7251C11.4557 10.725 11.672 10.9411 11.672 11.2078Z" fill="#150E37"/>
</svg>
