<svg width="31" height="38" viewBox="0 0 31 38" fill="none" xmlns="http://www.w3.org/2000/svg">
<path d="M12.1569 37.1151H25.5295C26.8723 37.1151 27.9609 36.0275 27.9609 34.686V16.4675C27.9609 15.1259 26.8723 14.0383 25.5295 14.0383H15.804L9.72552 19.5039V34.686C9.72552 36.0275 10.8141 37.1151 12.1569 37.1151Z" fill="white"/>
<path d="M24.0785 20.429H19.2157C18.5443 20.429 18 19.8853 18 19.2145C18 18.5437 18.5443 17.9999 19.2157 17.9999H24.0785C24.7499 17.9999 25.2942 18.5437 25.2942 19.2145C25.2942 19.8853 24.7499 20.429 24.0785 20.429Z" fill="#5843BE"/>
<path d="M23.7061 24.9694H13.9806C13.3091 24.9694 12.7649 24.4257 12.7649 23.7549C12.7649 23.0841 13.3091 22.5403 13.9806 22.5403H23.7061C24.3776 22.5403 24.9218 23.0841 24.9218 23.7549C24.9218 24.4257 24.3776 24.9694 23.7061 24.9694Z" fill="#5843BE"/>
<path d="M23.7061 29.8277H13.9806C13.3091 29.8277 12.7649 29.284 12.7649 28.6132C12.7649 27.9423 13.3091 27.3986 13.9806 27.3986H23.7061C24.3776 27.3986 24.9218 27.9423 24.9218 28.6132C24.9218 29.284 24.3776 29.8277 23.7061 29.8277Z" fill="#5843BE"/>
<path d="M23.7061 34.686H13.9806C13.3091 34.686 12.7649 34.1423 12.7649 33.4714C12.7649 32.8006 13.3091 32.2568 13.9806 32.2568H23.7061C24.3776 32.2568 24.9218 32.8006 24.9218 33.4714C24.9218 34.1423 24.3776 34.686 23.7061 34.686Z" fill="#5843BE"/>
<path d="M7.29418 29.8277H20.6668C22.0096 29.8277 23.0982 28.7402 23.0982 27.3986V9.18005C23.0982 7.83849 22.0096 6.75092 20.6668 6.75092H10.9413L4.86279 12.2165V27.3986C4.86279 28.7402 5.95137 29.8277 7.29418 29.8277Z" fill="#2F2173"/>
<path d="M18.8431 11.6092H13.9803C13.3089 11.6092 12.7646 11.0654 12.7646 10.3946C12.7646 9.7238 13.3089 9.18006 13.9803 9.18006H18.8431C19.5145 9.18006 20.0588 9.7238 20.0588 10.3946C20.0588 11.0654 19.5145 11.6092 18.8431 11.6092Z" fill="white"/>
<path d="M18.8431 16.4675H9.11755C8.44611 16.4675 7.90186 15.9237 7.90186 15.2529C7.90186 14.5821 8.44611 14.0383 9.11755 14.0383H18.8431C19.5145 14.0383 20.0588 14.5821 20.0588 15.2529C20.0588 15.9237 19.5145 16.4675 18.8431 16.4675Z" fill="white"/>
<path d="M18.8431 21.3257H9.11755C8.44611 21.3257 7.90186 20.782 7.90186 20.1111C7.90186 19.4403 8.44611 18.8966 9.11755 18.8966H18.8431C19.5145 18.8966 20.0588 19.4403 20.0588 20.1111C20.0588 20.782 19.5145 21.3257 18.8431 21.3257Z" fill="white"/>
<path d="M18.8431 26.184H9.11755C8.44611 26.184 7.90186 25.6402 7.90186 24.9694C7.90186 24.2986 8.44611 23.7549 9.11755 23.7549H18.8431C19.5145 23.7549 20.0588 24.2986 20.0588 24.9694C20.0588 25.6402 19.5145 26.184 18.8431 26.184Z" fill="white"/>
<path d="M2.43138 23.7549H15.804C17.1468 23.7549 18.2354 22.6673 18.2354 21.3257V3.10721C18.2354 1.76564 17.1468 0.67807 15.804 0.67807H6.07846L0 6.14363V21.3257C0 22.6673 1.08858 23.7549 2.43138 23.7549Z" fill="#5843BE"/>
<path d="M6.07846 0.67807V3.7145C6.07846 5.05607 4.98988 6.14365 3.64708 6.14365H0L6.07846 0.67807Z" fill="#A5C3DC"/>
<path d="M13.9804 6.14365H9.11767C8.44623 6.14365 7.90198 5.59991 7.90198 4.92909C7.90198 4.25828 8.44623 3.71454 9.11767 3.71454H13.9804C14.6519 3.71454 15.1961 4.25828 15.1961 4.92909C15.1961 5.59991 14.6519 6.14365 13.9804 6.14365Z" fill="#A5C3DC"/>
<path d="M13.9805 11.0019H4.25494C3.5835 11.0019 3.03925 10.4582 3.03925 9.78735C3.03925 9.11653 3.5835 8.57278 4.25494 8.57278H13.9805C14.6519 8.57278 15.1962 9.11653 15.1962 9.78735C15.1962 10.4582 14.6519 11.0019 13.9805 11.0019Z" fill="#A5C3DC"/>
<path d="M13.9805 15.8602H4.25494C3.5835 15.8602 3.03925 15.3165 3.03925 14.6456C3.03925 13.9748 3.5835 13.4311 4.25494 13.4311H13.9805C14.6519 13.4311 15.1962 13.9748 15.1962 14.6456C15.1962 15.3165 14.6519 15.8602 13.9805 15.8602Z" fill="#A5C3DC"/>
<path d="M13.9805 20.7185H4.25494C3.5835 20.7185 3.03925 20.1747 3.03925 19.5039C3.03925 18.833 3.5835 18.2893 4.25494 18.2893H13.9805C14.6519 18.2893 15.1962 18.833 15.1962 19.5039C15.1962 20.1747 14.6519 20.7185 13.9805 20.7185Z" fill="#A5C3DC"/>
<path d="M30.2727 30.435H29.1766V7.96548C29.1766 7.29466 28.6324 6.75092 27.9609 6.75092C27.2895 6.75092 26.7452 7.29466 26.7452 7.96548V30.435H25.6491C25.2474 30.435 24.9217 30.7604 24.9217 31.1618C24.9217 31.3452 24.9911 31.5218 25.1161 31.6562L27.2799 33.9845C27.4557 34.1737 27.7025 34.2812 27.9608 34.2812C28.2192 34.2812 28.466 34.1737 28.6418 33.9845L30.8056 31.6562C30.9306 31.5218 31 31.3452 31 31.1618C31.0002 30.7604 30.6745 30.435 30.2727 30.435Z" fill="#2F2073"/>
</svg>
