<svg width="31" height="32" viewBox="0 0 31 32" fill="none" xmlns="http://www.w3.org/2000/svg">
<g clip-path="url(#clip0)">
<path d="M24.6042 0.151672H4.26042C3.01396 0.151672 2 1.16469 2 2.41V4.89545C2 5.84395 2.36942 6.73567 3.04108 7.40543L10.5689 14.9211C10.8686 15.2205 11.0417 15.6374 11.0417 16.0619V26.2838C11.0417 26.6619 11.2612 27.0051 11.6061 27.1626C11.7353 27.2232 11.8735 27.2516 12.0104 27.2516C12.2378 27.2516 12.4625 27.1716 12.6407 27.018L16.2587 23.9196C17.0479 23.2447 17.5 22.2627 17.5 21.2251V16.089C17.5 15.6541 17.6795 15.2296 17.9934 14.9276L25.7783 7.42349C26.468 6.7589 26.8633 5.82718 26.8633 4.86965V2.41C26.8646 1.16469 25.8506 0.151672 24.6042 0.151672V0.151672Z" fill="#968BCA"/>
<path d="M14.4323 0.151672H4.26042C3.01396 0.151672 2 1.16469 2 2.41V4.89545C2 5.84395 2.36942 6.73567 3.04108 7.40543L10.5689 14.9211C10.8686 15.2205 11.0417 15.6374 11.0417 16.0619V26.2838C11.0417 26.6619 11.2613 27.0051 11.6061 27.1626C11.7353 27.2232 11.8735 27.2516 12.0104 27.2516C12.2378 27.2516 12.4625 27.1716 12.6408 27.018L14.4323 25.4837V0.151672Z" fill="#5843BE"/>
<path d="M30.7395 15.6373H22.3437C21.0972 15.6373 20.0833 16.6504 20.0833 17.8957V28.8647C20.0833 30.11 21.0972 31.123 22.3437 31.123H30.7395C31.9859 31.123 32.9999 30.11 32.9999 28.8647V17.8957C32.9999 16.6504 31.9859 15.6373 30.7395 15.6373Z" fill="#ECEFF1"/>
<path d="M28.1562 22.7349H24.927C24.3923 22.7349 23.9583 22.3013 23.9583 21.767C23.9583 21.2328 24.3923 20.7992 24.927 20.7992H28.1562C28.6909 20.7992 29.1249 21.2328 29.1249 21.767C29.1249 22.3013 28.6909 22.7349 28.1562 22.7349Z" fill="#90A4AE"/>
<path d="M28.1562 26.6064H24.927C24.3923 26.6064 23.9583 26.1728 23.9583 25.6385C23.9583 25.1043 24.3923 24.6707 24.927 24.6707H28.1562C28.6909 24.6707 29.1249 25.1043 29.1249 25.6385C29.1249 26.1728 28.6909 26.6064 28.1562 26.6064Z" fill="#90A4AE"/>
<path d="M26.5416 15.6373H22.3437C21.0972 15.6373 20.0833 16.6504 20.0833 17.8957V28.8647C20.0833 30.11 21.0972 31.123 22.3437 31.123H26.5416V26.6064H24.927C24.3922 26.6064 23.9582 26.1728 23.9582 25.6385C23.9582 25.1042 24.3922 24.6706 24.927 24.6706H26.5416V22.7349H24.927C24.3922 22.7349 23.9582 22.3013 23.9582 21.7671C23.9582 21.2328 24.3922 20.7992 24.927 20.7992H26.5416V15.6373Z" fill="#CDD0D2"/>
<path d="M26.5416 20.7992H24.927C24.3923 20.7992 23.9583 21.2328 23.9583 21.767C23.9583 22.3013 24.3923 22.7349 24.927 22.7349H26.5416V20.7992Z" fill="#7D8F97"/>
<path d="M26.5416 24.6706H24.927C24.3923 24.6706 23.9583 25.1042 23.9583 25.6384C23.9583 26.1727 24.3923 26.6063 24.927 26.6063H26.5416V24.6706Z" fill="#7D8F97"/>
</g>
<defs>
<clipPath id="clip0">
<rect width="31" height="30.9714" fill="white" transform="translate(0 0.151672)"/>
</clipPath>
</defs>
</svg>
