<svg width="32" height="33" viewBox="0 0 32 33" fill="none" xmlns="http://www.w3.org/2000/svg">
<path d="M31.4036 10.7231L24.8866 17.0013L23.5496 15.5856L28.4816 10.834C28.9586 10.3744 28.9716 9.6161 28.5116 9.13955L24.1086 4.57777C23.8856 4.34798 23.5856 4.2171 23.2656 4.21211C22.9486 4.20511 22.6416 4.326 22.4116 4.5468L18.5246 8.29033L21.8996 11.7821C22.1756 12.0708 22.1536 12.5464 21.8646 12.8271C21.6616 13.021 21.3646 13.0819 21.1126 13L16.2166 7.81377L22.6226 1.63649C23.0116 1.26583 23.6356 1.28681 24.0086 1.67346L31.4136 9.34236C31.7866 9.728 31.7866 10.3504 31.4036 10.7231ZM9.27964 29.3359C9.05264 29.5567 8.74465 29.6775 8.42764 29.6695C8.10864 29.6636 7.80564 29.5327 7.58364 29.3059L3.18065 24.7421C2.72165 24.2655 2.73365 23.5142 3.21065 23.0507L5.23565 25.1527C5.51465 25.4415 5.97265 25.4495 6.26164 25.1737C6.55064 24.898 6.55665 24.4414 6.27665 24.1517L4.25465 22.0466L4.79365 21.5261L6.81865 23.6281C7.09564 23.9149 7.55365 23.9249 7.84465 23.6491C8.13264 23.3684 8.13964 22.9138 7.85964 22.6231L5.83565 20.524L6.37565 20.0035L8.39865 22.1035C8.67765 22.3903 9.13765 22.4003 9.42465 22.1245C9.71564 21.8468 9.72064 21.3912 9.44265 21.1005L7.41764 19.0004L7.95665 18.4799L9.98164 20.578C10.2596 20.8687 10.7176 20.8777 11.0076 20.5989C11.1146 20.495 11.1846 20.3652 11.2126 20.2313L7.46364 16.255L0.289646 23.1616C-0.094354 23.5342 -0.094354 24.1586 0.276646 24.5433L7.68164 32.2172C8.05365 32.6028 8.67965 32.6238 9.06365 32.2492L16.1306 25.4435L14.7946 24.0278L9.27964 29.3359ZM22.2186 10.4803C21.2846 9.5162 21.3126 7.97163 22.2806 7.04149C23.2436 6.10935 24.7886 6.13732 25.7196 7.10243C26.6536 8.06854 26.6206 9.61311 25.6576 10.5412C24.6966 11.4734 23.1516 11.4454 22.2186 10.4803ZM23.2636 9.47324C23.6396 9.85888 24.2596 9.86987 24.6516 9.49622C25.0386 9.12156 25.0496 8.50014 24.6736 8.1125C24.2986 7.72485 23.6766 7.71187 23.2886 8.08652C22.9006 8.46117 22.8886 9.0826 23.2636 9.47324ZM27.1966 21.9307L20.8236 27.9302L6.62065 12.8741L12.9956 6.87464L27.1966 21.9307ZM14.0646 11.0728C14.0676 10.9289 14.0156 10.787 13.9136 10.6811L13.2196 9.9478C13.0136 9.729 12.6666 9.71801 12.4456 9.92482L12.0696 10.2775C11.8486 10.4833 11.8396 10.833 12.0456 11.0508L12.7356 11.7891C12.8386 11.895 12.9746 11.9589 13.1216 11.9599C13.2666 11.9659 13.8906 11.4574 13.8906 11.4574C13.9966 11.3565 14.0586 11.2186 14.0646 11.0728ZM23.9306 22.1016C24.1536 21.8937 24.1616 21.5461 23.9526 21.3263L15.9736 12.8691C15.8736 12.7612 15.7376 12.6993 15.5896 12.6963C15.4466 12.6913 15.3036 12.7462 15.1986 12.8441L14.8216 13.1998C14.6006 13.4066 14.5906 13.7523 14.7986 13.9731L22.7766 22.4312C22.8806 22.5371 23.0146 22.6011 23.1636 22.6051C23.3096 22.6101 23.4506 22.5551 23.5576 22.4552L23.9306 22.1016ZM5.97565 12.1877L12.3486 6.18628L10.7026 4.44189L4.33065 10.4443L5.97565 12.1877ZM1.48965 7.42913C1.14265 7.06147 0.958646 6.57692 0.972646 6.07338C0.988646 5.57085 1.20165 5.09729 1.56865 4.75261L5.18065 1.35275C5.94065 0.63142 7.14065 0.668386 7.85964 1.42968L10.0986 3.80249L3.72565 9.80193L1.48965 7.42913ZM2.62665 6.12334L3.79665 7.36619L7.65965 3.72955L6.48665 2.4887L2.62665 6.12334ZM30.4296 30.5008C30.5386 30.8465 30.4396 31.2231 30.1776 31.4709C29.9136 31.7196 29.5316 31.7926 29.1946 31.6637L21.6306 28.7804L27.9966 22.7789L30.4296 30.5008ZM28.4086 27.9092L27.4516 24.873L23.7506 28.3608L26.7286 29.4957L28.4086 27.9092Z" fill="#707070"/>
</svg>
